<?xml version="1.0" standalone="no"?><!DOCTYPE svg PUBLIC "-//W3C//DTD SVG 1.1//EN" "http://www.w3.org/Graphics/SVG/1.1/DTD/svg11.dtd"><svg t="1592309498102" class="icon" viewBox="0 0 1024 1024" version="1.1" xmlns="http://www.w3.org/2000/svg" p-id="3924" xmlns:xlink="http://www.w3.org/1999/xlink" width="200" height="200"><defs><style type="text/css"></style></defs><path d="M829.1328 434.9952H445.5424c-27.136 0-49.152 22.016-49.152 49.152V724.992c0 27.136 22.016 49.152 49.152 49.152h233.0624l99.9424 76.8 14.9504-78.848 35.84 2.1504c27.136 0 49.152-22.016 49.152-49.152V484.1472c-0.2048-27.136-22.1184-49.152-49.3568-49.152z m0 0" fill="#3173E7" p-id="3925"></path><path d="M829.1328 408.2688H445.5424c-27.136 0-49.152 22.016-49.152 49.152v240.8448c0 27.136 22.016 49.152 49.152 49.152h233.0624l104.3456 80.1792 15.0528-80.1792h31.232c27.136 0 49.152-22.016 49.152-49.152V457.4208c-0.1024-27.136-22.016-49.152-49.2544-49.152z m0 0" fill="#5EADEF" p-id="3926"></path><path d="M829.44 408.2688h-36.352c27.136 0 49.152 22.016 49.152 49.152v240.8448c0 27.136-22.016 49.152-49.152 49.152l-41.6768 55.808 31.744 24.3712 15.0528-80.1792H829.44c27.136 0 49.152-22.016 49.152-49.152V457.4208c0-27.136-22.1184-49.152-49.152-49.152z m0 0" fill="#8FC6F4" p-id="3927"></path><path d="M770.1504 681.984H514.56c-17.6128 0-31.8464-14.2336-31.8464-31.8464 0-17.6128 14.2336-31.8464 31.8464-31.8464h255.5904c17.6128 0 31.8464 14.2336 31.8464 31.8464 0 17.6128-14.2336 31.8464-31.8464 31.8464z m0 0" fill="#FFFFFF" p-id="3928"></path><path d="M801.9968 430.592H445.5424c-27.136 0-49.152 22.016-49.152 49.152v187.5968h340.1728c36.2496 0 65.536-29.2864 65.536-65.536l-0.1024-171.2128z m0 0" fill="#4C96EC" p-id="3929"></path><path d="M795.4432 630.784c-5.8368-7.5776-14.9504-12.3904-25.1904-12.3904H514.56c-17.6128 0-31.8464 14.2336-31.8464 31.8464 0 6.3488 1.8432 12.288 5.12 17.2032h248.7296c25.8048 0.1024 48.2304-14.848 58.88-36.6592z m0 0" fill="#86B3F2" p-id="3930"></path><path d="M736.4608 201.1136H209.92c-36.2496 0-65.536 29.2864-65.536 65.536v312.7296c0 36.2496 29.2864 65.536 65.536 65.536h30.1056l17.5104 79.2576 122.2656-79.2576h356.6592c36.2496 0 65.536-29.2864 65.536-65.536V266.6496c0-36.1472-29.2864-65.536-65.536-65.536z m0 0" fill="#3173E7" p-id="3931"></path><path d="M736.4608 174.3872H209.92c-36.2496 0-65.536 29.2864-65.536 65.536v312.7296c0 36.2496 29.2864 65.536 65.536 65.536h23.9616l18.432 82.6368 127.488-82.6368h356.6592c36.2496 0 65.536-29.2864 65.536-65.536V239.9232c0-36.1472-29.2864-65.536-65.536-65.536z m0 0" fill="#E7F5FD" p-id="3932"></path><path d="M252.416 700.928L379.904 618.2912h-47.5136l-79.9744 82.6368z m484.1472-526.5408h-47.5136c36.2496 0 65.536 29.2864 65.536 65.536v312.7296c0 36.2496-29.2864 65.536-65.536 65.536h47.5136c36.2496 0 65.536-29.2864 65.536-65.536V239.9232c0-36.1472-29.2864-65.536-65.536-65.536z m0 0" fill="#F0F8FC" p-id="3933"></path><path d="M639.488 361.7792H285.696c-17.6128 0-31.8464-14.2336-31.8464-31.8464 0-17.6128 14.2336-31.8464 31.8464-31.8464h353.792c17.6128 0 31.8464 14.2336 31.8464 31.8464 0 17.5104-14.2336 31.8464-31.8464 31.8464z m0 0" fill="#FCCA4C" p-id="3934"></path><path d="M500.9408 492.1344H285.696c-17.6128 0-31.8464-14.2336-31.8464-31.8464 0-17.6128 14.2336-31.8464 31.8464-31.8464h215.2448c17.6128 0 31.8464 14.2336 31.8464 31.8464 0 17.6128-14.2336 31.8464-31.8464 31.8464z m138.5472 0h-30.9248c-17.6128 0-31.8464-14.2336-31.8464-31.8464 0-17.6128 14.2336-31.8464 31.8464-31.8464h30.9248c17.6128 0 31.8464 14.2336 31.8464 31.8464 0 17.6128-14.2336 31.8464-31.8464 31.8464z m0 0" fill="#5EADEF" p-id="3935"></path></svg>