<?xml version="1.0" standalone="no"?><!DOCTYPE svg PUBLIC "-//W3C//DTD SVG 1.1//EN" "http://www.w3.org/Graphics/SVG/1.1/DTD/svg11.dtd"><svg t="1592240195555" class="icon" viewBox="0 0 1024 1024" version="1.1" xmlns="http://www.w3.org/2000/svg" p-id="8942" xmlns:xlink="http://www.w3.org/1999/xlink" width="200" height="200"><defs><style type="text/css"></style></defs><path d="M512.0512 166.31808a345.64096 345.64096 0 1 1-345.6 345.64096 345.93792 345.93792 0 0 1 345.6-345.64096m0-115.21024a460.8512 460.8512 0 1 0 460.6976 460.8512 460.8 460.8 0 0 0-460.6976-460.8m115.2 633.67168a57.46688 57.46688 0 0 1-40.7552-16.86528l-115.0976-115.16928a57.53856 57.53856 0 0 1-16.9984-40.6016v-230.6048a57.6 57.6 0 1 1 115.2 0v206.49984l98.304 98.304a57.61024 57.61024 0 0 1-40.6528 98.304" p-id="8943" fill="#707070"></path></svg>